<svg width="480" height="480" viewBox="0 0 480 480" fill="none" xmlns="http://www.w3.org/2000/svg">
<path d="M3848.78 2050.22C3751.15 1952.59 3592.85 1952.59 3495.22 2050.22C3397.59 2147.86 3397.59 2306.15 3495.22 2403.78C3592.85 2501.41 3751.15 2501.41 3848.78 2403.78C3946.41 2306.15 3946.41 2147.86 3848.78 2050.22ZM3699.67 2358.64C3684.39 2373.91 3659.62 2373.91 3644.34 2358.64C3629.05 2343.35 3629.05 2318.57 3644.34 2303.3C3659.62 2288.03 3684.39 2288.03 3699.67 2303.3C3714.95 2318.57 3714.95 2343.35 3699.67 2358.64ZM3697 2255.84H3647L3628.95 2083.91H3715.05L3697 2255.84Z" fill="#1C7FF2" transform="translate(-3397, -1952)"/>
</svg>
