<svg width="450" height="460" viewBox="0 0 450 460" fill="none" xmlns="http://www.w3.org/2000/svg">
<path d="M1592.97 3147.32H1493.06C1487.5 3147.32 1483 3151.82 1483 3157.38V3300.91C1483 3306.47 1487.5 3310.97 1493.06 3310.97H1592.97C1598.53 3310.97 1603.03 3306.47 1603.03 3300.91V3157.38C1603.03 3151.82 1598.53 3147.32 1592.97 3147.32Z" fill="#1C7FF2" transform="translate(-1483, -2858)"/>
<path d="M1752.96 3009.53H1653.05C1647.49 3009.53 1642.99 3014.03 1642.99 3019.59V3300.28C1642.99 3305.84 1647.49 3310.34 1653.05 3310.34H1752.96C1758.52 3310.34 1763.02 3305.84 1763.02 3300.28V3019.59C1763.02 3014.03 1758.52 3009.53 1752.96 3009.53Z" fill="#1C7FF2" transform="translate(-1483, -2858)"/>
<path d="M1912.94 2858H1813.03C1807.47 2858 1802.97 2862.5 1802.97 2868.06V3300.91C1802.97 3306.47 1807.47 3310.97 1813.03 3310.97H1912.94C1918.5 3310.97 1923 3306.47 1923 3300.91V2868.06C1923 2862.5 1918.5 2858 1912.94 2858Z" fill="#1C7FF2" transform="translate(-1483, -2858)"/>
</svg>
