<svg width="520" height="350" viewBox="0 0 520 350" fill="none" xmlns="http://www.w3.org/2000/svg">
<path d="M896.107 8448.03C865.487 8417.02 824.637 8399.61 781.097 8399.02C736.947 8398.42 695.287 8414.94 663.807 8445.53C632.317 8476.13 614.637 8517.3 614.017 8561.46C613.517 8596.94 624.127 8630.89 644.707 8659.64C663.537 8685.95 673.487 8716.35 673.487 8747.56V8778.37C673.487 8818.53 700.857 8852.42 737.917 8862.38C737.917 8884.95 756.227 8903.26 778.807 8903.26C801.397 8903.25 819.697 8884.95 819.707 8862.38C856.767 8852.42 884.137 8818.54 884.137 8778.37V8746.06C884.137 8715.56 893.927 8685.91 912.437 8660.31C932.847 8632.1 943.627 8598.73 943.627 8563.82C943.627 8520.19 926.747 8479.07 896.097 8448.03H896.107ZM834.137 8778.37C834.137 8798.76 817.547 8815.35 797.157 8815.35H760.457C740.067 8815.35 723.477 8798.76 723.477 8778.37V8775.35H834.127V8778.37H834.137ZM871.927 8631.01C851.387 8659.41 838.887 8691.68 835.247 8725.35H722.227C718.397 8691.57 705.847 8659.16 685.357 8630.54C671.037 8610.53 663.657 8586.89 663.997 8562.16C664.427 8531.36 676.727 8502.67 698.637 8481.38C720.547 8460.09 749.567 8448.59 780.397 8449.01C810.727 8449.42 839.177 8461.55 860.507 8483.15C881.857 8504.77 893.617 8533.42 893.617 8563.81C893.617 8588.13 886.117 8611.37 871.917 8631L871.927 8631.01Z" fill="#1C7FF2" transform="translate(-614, -8399)"/>
</svg>
