<svg width="500" height="520" viewBox="0 0 500 520" fill="none" xmlns="http://www.w3.org/2000/svg">
<path d="M801.54 7625.52C763.45 7625.52 732.46 7656.51 732.46 7694.6C732.46 7732.69 763.45 7763.69 801.54 7763.69C839.63 7763.69 870.63 7732.69 870.63 7694.6C870.63 7656.51 839.64 7625.52 801.54 7625.52Z" fill="#1C7FF2" transform="translate(-558, -7472)"/>
<path d="M894.54 7523.87V7472H708.55V7523.87H558V7865.33H1029.4V7523.87H894.54ZM801.54 7803.69C741.4 7803.69 692.46 7754.75 692.46 7694.6C692.46 7634.45 741.4 7585.52 801.54 7585.52C861.68 7585.52 910.63 7634.45 910.63 7694.6C910.63 7754.75 861.69 7803.69 801.54 7803.69Z" fill="#1C7FF2" transform="translate(-558, -7472)"/>
</svg>
