<svg width="586" height="381" viewBox="0 0 586 381" fill="none" xmlns="http://www.w3.org/2000/svg">
<path d="M249.98 80.2617C212.01 80.2617 181.23 111.042 181.23 149.012C181.23 186.982 212.01 217.762 249.98 217.762C287.95 217.762 318.73 186.982 318.73 149.012C318.73 111.042 287.95 80.2617 249.98 80.2617Z" fill="#1C7FF2"/>
<path d="M499.98 295.613V211.323V86.723V2.43298V0.873047H498.41H414.99H84.99H1.56982H0V297.173H500V295.613H499.98ZM49.98 193.423V104.623C78.13 101.513 100.45 79.083 103.36 50.873H396.6C399.52 79.073 421.83 101.503 449.98 104.623V193.423C421.84 196.533 399.52 218.973 396.6 247.173H103.36C100.44 218.973 78.12 196.533 49.98 193.423Z" fill="#1C7FF2"/>
<path d="M535.94 330.632H48.8301V380.632H585.94V52.9316H535.94V330.632Z" fill="#1C7FF2"/>
</svg>
