<svg width="446" height="463" viewBox="0 0 446 463" fill="none" xmlns="http://www.w3.org/2000/svg">
<path d="M428.54 231.43V445.4H17V17.4497H222.771V67.4497H67V395.4H378.54V231.43H428.54Z" fill="#1C7FF2"/>
<path d="M401.37 169.78L428.979 19.9498C429.289 18.2798 427.84 16.7298 426.06 17.0398L275.96 44.9598C273.97 45.2598 273.28 47.7198 274.56 49.0498L294.97 69.1698L318.21 92.3398L318.17 92.3798L318.24 92.4498L157 253.69L192.359 289.05L353.6 127.81L353.859 128.07L353.939 127.99L365.979 139.98C366.039 140.02 366.11 140.09 366.17 140.16L378.33 152.32L381.12 155.09L397.22 171.19C398.71 172.54 400.98 171.88 401.37 169.8V169.78Z" fill="#1C7FF2"/>
</svg>
