<svg width="480" height="480" viewBox="0 0 480 480" fill="none" xmlns="http://www.w3.org/2000/svg">
<path d="M3818.78 4659.22C3769.96 4610.4 3705.98 4586 3642 4586C3578.02 4586 3514.04 4610.41 3465.22 4659.22C3367.59 4756.85 3367.59 4915.14 3465.22 5012.77C3514.04 5061.59 3578.02 5085.99 3642 5085.99C3705.98 5085.99 3769.96 5061.58 3818.78 5012.77C3916.41 4915.14 3916.41 4756.85 3818.78 4659.22ZM3818.8 4742.3H3741.78C3736.53 4712.07 3728.63 4683.73 3718.08 4659.22C3716.57 4655.71 3715.02 4652.34 3713.45 4649.09C3739.4 4659 3763.2 4674.35 3783.43 4694.58C3797.72 4708.87 3809.58 4724.95 3818.8 4742.3ZM3842 4836C3842 4850.88 3840.38 4865.51 3837.23 4879.7H3747.93C3750.13 4850.81 3750.13 4821.19 3747.93 4792.3H3837.23C3840.38 4806.49 3842 4821.12 3842 4836ZM3642 5035.86C3638.21 5034.27 3625.27 5024.19 3611.85 4993.01C3603.81 4974.32 3597.53 4952.8 3593.02 4929.7H3690.98C3686.47 4952.8 3680.19 4974.32 3672.15 4993.01C3658.73 5024.19 3645.78 5034.27 3642 5035.86ZM3586.18 4879.7C3583.78 4850.89 3583.78 4821.11 3586.18 4792.3H3697.82C3700.22 4821.11 3700.22 4850.89 3697.82 4879.7H3586.18ZM3642 4636.14C3645.78 4637.73 3658.73 4647.8 3672.15 4678.99C3680.19 4697.68 3686.47 4719.2 3690.98 4742.3H3593.02C3597.53 4719.2 3603.81 4697.68 3611.85 4678.99C3625.27 4647.8 3638.22 4637.73 3642 4636.14ZM3500.58 4694.58C3520.81 4674.35 3544.61 4659 3570.56 4649.09C3568.98 4652.35 3567.44 4655.72 3565.93 4659.22C3555.38 4683.73 3547.48 4712.06 3542.23 4742.3H3465.21C3474.44 4724.95 3486.29 4708.87 3500.58 4694.58ZM3446.77 4792.3H3536.07C3533.87 4821.19 3533.87 4850.81 3536.07 4879.7H3446.77C3443.62 4865.51 3442 4850.88 3442 4836C3442 4821.12 3443.62 4806.49 3446.77 4792.3ZM3465.21 4929.7H3542.23C3547.48 4959.93 3555.38 4988.27 3565.93 5012.78C3567.44 5016.29 3568.99 5019.66 3570.56 5022.91C3544.61 5013 3520.81 4997.65 3500.58 4977.42C3486.29 4963.13 3474.43 4947.05 3465.21 4929.7ZM3783.42 4977.42C3763.19 4997.65 3739.39 5013 3713.44 5022.91C3715.02 5019.65 3716.56 5016.29 3718.07 5012.78C3728.62 4988.27 3736.52 4959.94 3741.77 4929.7H3818.79C3809.56 4947.05 3797.71 4963.13 3783.42 4977.42Z" fill="#1C7FF2" transform="translate(-3367, -4586)"/>
</svg>
