<svg width="420" height="450" viewBox="0 0 420 450" fill="none" xmlns="http://www.w3.org/2000/svg">
<path d="M3807.71 3164.94C3791.84 3164.94 3777.23 3170.33 3765.6 3179.37L3605.72 3083.72L3765.6 2988.07C3777.24 2997.1 3791.84 3002.5 3807.71 3002.5C3845.68 3002.5 3876.46 2971.72 3876.46 2933.75C3876.46 2895.78 3845.68 2865 3807.71 2865C3769.74 2865 3738.96 2895.78 3738.96 2933.75C3738.96 2937.64 3739.3 2941.46 3739.92 2945.18L3586.9 3036.72C3574.36 3023.34 3556.53 3014.97 3536.75 3014.97C3498.78 3014.97 3468 3045.75 3468 3083.72C3468 3121.69 3498.78 3152.47 3536.75 3152.47C3556.54 3152.47 3574.36 3144.1 3586.9 3130.72L3739.92 3222.27C3739.3 3225.99 3738.96 3229.8 3738.96 3233.69C3738.96 3271.66 3769.74 3302.44 3807.71 3302.44C3845.68 3302.44 3876.46 3271.66 3876.46 3233.69C3876.46 3195.72 3845.68 3164.94 3807.71 3164.94Z" fill="#1C7FF2" transform="translate(-3468, -2865)"/>
</svg>
