<svg width="390" height="588" viewBox="0 0 390 588" fill="none" xmlns="http://www.w3.org/2000/svg">
<path d="M166.88 94.888C151.59 110.158 151.59 134.938 166.88 150.228C182.15 165.498 206.93 165.498 222.21 150.228C237.48 134.938 237.48 110.168 222.21 94.888C206.93 79.618 182.15 79.618 166.88 94.888Z" fill="#1C7FF2"/>
<path d="M306.78 0H82.29C36.91 0 0 36.9199 0 82.2999V211.49C0 256.87 36.91 293.78 82.29 293.78H124.86L124.91 509.58L202.43 587.39L317.07 466L288.28 436.56L316.65 404.53L270.78 364.89V293.78H306.78C352.15 293.78 389.07 256.87 389.07 211.49V82.2999C389.07 36.9199 352.15 0 306.78 0ZM339.07 211.49C339.07 229.3 324.58 243.78 306.78 243.78H220.78V387.76L245.66 409.26L219.99 438.24L247.73 466.6L201.47 515.59L174.9 488.92L174.85 243.78H82.29C64.48 243.78 50 229.3 50 211.49V82.2999C50 64.4899 64.48 50 82.29 50H306.78C324.58 50 339.07 64.4899 339.07 82.2999V211.49Z" fill="#1C7FF2"/>
</svg>
