<svg width="340" height="562" viewBox="0 0 340 562" fill="none" xmlns="http://www.w3.org/2000/svg">
<path d="M287.51 242.24H314.68V146.32H218.75V129.75C218.75 91.78 187.97 61 150 61C112.03 61 81.25 91.78 81.25 129.75V146.32H0V242.24H27.17C-10.8 242.24 -41.58 273.02 -41.58 310.99C-41.58 348.96 -10.8 379.74 27.17 379.74H44.32V475.66H140.25V492.69C140.25 530.66 171.03 561.44 209 561.44C246.97 561.44 277.75 530.66 277.75 492.69V475.66H372.68V379.74H345.51C383.48 379.74 414.25 348.96 414.25 310.99C414.25 273.02 383.47 242.23 345.51 242.23H287.51Z" fill="#1C7FF2" transform="translate(-18, -61)"/>
</svg>
