<svg width="483" height="483" viewBox="0 0 483 483" fill="none" xmlns="http://www.w3.org/2000/svg">
<path d="M482.668 447.31L355.837 320.48C416.408 242.52 410.887 129.83 339.267 58.21C300.467 19.4 249.598 0 198.738 0C147.878 0 97.0175 19.4 58.2075 58.21C-19.4025 135.82 -19.4025 261.65 58.2075 339.26C97.0075 378.06 147.878 397.47 198.738 397.47C241.748 397.47 284.758 383.59 320.478 355.84L447.307 482.67L482.668 447.31ZM93.5675 303.9C65.4775 275.81 50.0075 238.46 50.0075 198.73C50.0075 159 65.4775 121.65 93.5675 93.5601C121.657 65.4701 159.008 50 198.738 50C238.468 50 275.818 65.4701 303.908 93.5601C331.997 121.65 347.467 159 347.467 198.73C347.467 233.59 335.557 266.61 313.658 293.16L293.168 313.65C266.618 335.55 233.598 347.46 198.738 347.46C159.008 347.46 121.657 331.99 93.5675 303.9Z" fill="#1C7FF2"/>
</svg>
