<svg width="338" height="561" viewBox="0 0 338 561" fill="none" xmlns="http://www.w3.org/2000/svg">
<path d="M4641.74 7413H4456.56C4414.34 7413 4380 7447.35 4380 7489.56V7847.52C4380 7889.74 4414.35 7924.08 4456.56 7924.08H4641.74C4683.96 7924.08 4718.3 7889.73 4718.3 7847.52V7489.56C4718.3 7447.34 4683.95 7413 4641.74 7413ZM4668.3 7847.52C4668.3 7862.17 4656.38 7874.08 4641.74 7874.08H4456.56C4441.91 7874.08 4430 7862.16 4430 7847.52V7489.56C4430 7474.91 4441.92 7463 4456.56 7463H4481.97V7496.69H4616.33V7463H4641.74C4656.39 7463 4668.3 7474.92 4668.3 7489.56V7847.52Z" fill="#1C7FF2" transform="translate(-4380, -7413)"/>
</svg>
