<svg width="500" height="432" viewBox="0 0 500 432" fill="none" xmlns="http://www.w3.org/2000/svg">
<path d="M426.772 63.2775C329.142 -21.0925 170.852 -21.0925 73.2225 63.2775C-24.4075 147.658 -24.4075 284.457 73.2225 368.827C117.173 406.807 173.413 427.697 230.872 431.487C257.573 433.237 278.492 411.767 278.492 387.077C278.492 382.077 277.633 376.948 275.793 371.848C264.233 339.837 291.343 307.208 324.923 312.698L391.622 323.617C440.892 331.677 487.943 299.057 496.913 249.947C508.973 183.987 485.592 114.118 426.772 63.2775ZM155.363 305.367C140.073 320.637 115.302 320.637 100.032 305.367C84.7425 290.068 84.7425 265.297 100.032 250.027C115.302 234.747 140.073 234.747 155.363 250.027C170.633 265.297 170.633 290.068 155.363 305.367ZM155.363 164.397C140.073 179.667 115.302 179.667 100.032 164.397C84.7425 149.107 84.7425 124.338 100.032 109.058C115.302 93.7875 140.073 93.7875 155.363 109.058C170.633 124.338 170.633 149.107 155.363 164.397ZM306.723 125.278C291.443 140.548 266.672 140.548 251.402 125.278C236.102 109.978 236.102 85.2075 251.402 69.9375C266.672 54.6575 291.443 54.6575 306.723 69.9375C322.003 85.2075 322.003 109.978 306.723 125.278ZM429.793 215.837C414.513 231.107 389.732 231.107 374.462 215.837C359.172 200.548 359.172 175.768 374.462 160.497C389.732 145.227 414.513 145.227 429.793 160.497C445.062 175.768 445.062 200.548 429.793 215.837Z" fill="#1C7FF2"/>
</svg>
