<svg width="580" height="398" viewBox="0 0 580 398" fill="none" xmlns="http://www.w3.org/2000/svg">
<path fill-rule="evenodd" clip-rule="evenodd" d="M289.83 159.42C333.85 159.42 369.54 123.73 369.54 79.71C369.54 35.69 333.85 0 289.83 0C245.81 0 210.12 35.69 210.12 79.71C210.12 123.73 245.81 159.42 289.83 159.42Z" fill="#1C7FF2"/>
<path fill-rule="evenodd" clip-rule="evenodd" d="M111.88 146.47C129.59 128.74 129.59 100.02 111.88 82.3196C94.1599 64.6096 65.4399 64.6096 47.7399 82.3196C30.0099 100.03 30.0099 128.75 47.7399 146.47C65.4499 164.18 94.1699 164.18 111.88 146.47Z" fill="#1C7FF2"/>
<path fill-rule="evenodd" clip-rule="evenodd" d="M531.697 146.47C549.407 128.74 549.407 100.02 531.697 82.3196C513.977 64.6096 485.257 64.6096 467.557 82.3196C449.827 100.03 449.827 128.75 467.557 146.47C485.267 164.18 513.987 164.18 531.697 146.47Z" fill="#1C7FF2"/>
<path fill-rule="evenodd" clip-rule="evenodd" d="M579.2 269.479C579.2 225.409 543.47 189.679 499.4 189.679C455.33 189.679 420.84 224.209 419.66 267.249C400.15 220.259 353.82 187.199 299.76 187.199H279.89C225.44 187.199 178.83 220.739 159.57 268.279C158.93 224.759 123.47 189.669 79.8 189.669C35.73 189.669 0 225.399 0 269.469V319.299H150.11V398.009H429.54V319.299H579.2V269.469V269.479Z" fill="#1C7FF2"/>
</svg>
