<svg width="500" height="500" viewBox="0 0 500 500" fill="none" xmlns="http://www.w3.org/2000/svg">
<path d="M4842.45 3238.31L4723.76 3156.55C4722.24 3155.41 4720.14 3156.6 4720.1 3158.34L4720.24 3185.4V3215.07H4519.58C4488.38 3215.07 4463 3189.69 4463 3158.49C4463 3127.29 4488.38 3101.91 4519.58 3101.91H4568.68C4578.68 3127.52 4603.58 3145.66 4632.73 3145.66C4661.88 3145.66 4686.77 3127.51 4696.78 3101.91H4734.06C4792.83 3101.91 4840.64 3054.1 4840.64 2995.33C4840.64 2936.56 4792.83 2888.75 4734.06 2888.75H4559.27C4549.27 2863.14 4524.37 2845 4495.22 2845C4457.25 2845 4426.47 2875.78 4426.47 2913.75C4426.47 2951.72 4457.25 2982.5 4495.22 2982.5C4524.37 2982.5 4549.26 2964.35 4559.27 2938.75H4734.06C4765.26 2938.75 4790.64 2964.13 4790.64 2995.33C4790.64 3026.53 4765.26 3051.91 4734.06 3051.91H4696.78C4686.78 3026.3 4661.88 3008.16 4632.73 3008.16C4603.58 3008.16 4578.69 3026.31 4568.68 3051.91H4519.58C4460.81 3051.91 4413 3099.72 4413 3158.49C4413 3217.26 4460.81 3265.07 4519.58 3265.07H4720.23V3280.05C4720.24 3280.13 4720.25 3280.21 4720.25 3280.29L4720.22 3296.52V3300.23L4720.19 3321.73C4720.28 3323.62 4722.23 3324.71 4723.89 3323.57L4842.47 3242.2C4843.79 3241.29 4843.86 3239.3 4842.47 3238.31H4842.45Z" fill="#1C7FF2" transform="translate(-4413, -2845)"/>
</svg>
