<svg width="466" height="466" viewBox="0 0 466 466" fill="none" xmlns="http://www.w3.org/2000/svg">
<path fill-rule="evenodd" clip-rule="evenodd" d="M230.39 0.0100098H10.3101C4.61006 0.0100098 0 4.63007 0 10.3201V230.39C0 233.13 1.09002 235.75 3.02002 237.68L227.38 462.03C231.41 466.06 237.94 466.06 241.97 462.03L462.04 241.96C466.07 237.93 466.07 231.4 462.04 227.37L237.69 3.02002C235.76 1.09002 233.13 0 230.4 0L230.39 0.0100098ZM161.95 162.24C145.2 178.98 118.05 178.98 101.31 162.24C84.5498 145.48 84.5498 118.33 101.31 101.59C118.05 84.8501 145.2 84.8501 161.95 101.59C178.69 118.33 178.69 145.48 161.95 162.24Z" fill="#1C7FF2"/>
</svg>
