<svg width="510" height="600" viewBox="0 0 510 600" fill="none" xmlns="http://www.w3.org/2000/svg">
<path d="M943.12 2900.16L800.56 2954.83C798.66 2955.48 798.44 2958.02 799.93 2959.09L823.65 2975.19L850.71 2993.76L755.9 3131.43C755.22 3132.37 754 3132.64 753.19 3131.96L610.96 3034.49C610.01 3033.81 608.79 3034.08 608.12 3035.02L469 3236.75L509.14 3267.43L621.09 3104.92C621.77 3104.12 622.99 3103.85 623.94 3104.52L766.17 3201.99C767.12 3202.54 768.33 3202.41 768.87 3201.46L892.31 3022.32L906.31 3031.93C906.39 3031.96 906.47 3032.01 906.53 3032.06L920.69 3041.82L923.93 3044.04L942.69 3056.96C944.39 3058.01 946.51 3056.96 946.51 3054.84V2902.49C946.51 2900.79 944.81 2899.53 943.11 2900.16H943.12Z" fill="#1C7FF2" transform="translate(-469, -2900)"/>
</svg>
