<svg width="500" height="500" viewBox="0 0 500 500" fill="none" xmlns="http://www.w3.org/2000/svg">
<path d="M4799.01 9746.55V9631.31H4720.08C4720.08 9631.31 4720.06 9631.31 4720.06 9631.3C4717.58 9623.64 4714.62 9616.24 4711.17 9609.07L4767.9 9552.35L4686.4 9470.85L4630.59 9526.64C4623.5 9523.02 4616.15 9519.9 4608.57 9517.23V9437H4493.34V9515.88C4493.34 9515.88 4493.33 9515.92 4493.31 9515.92C4485.66 9518.4 4478.23 9521.38 4471.08 9524.83L4414.34 9468.07L4332.85 9549.57L4388.66 9605.38C4385.05 9612.47 4381.9 9619.83 4379.23 9627.4H4299V9742.64H4377.93H4377.94C4380.42 9750.29 4383.38 9757.72 4386.83 9764.89L4330.1 9821.62L4411.6 9903.11L4467.38 9847.3C4474.47 9850.91 4481.83 9854.07 4489.43 9856.73V9936.96H4604.67V9858.08C4604.67 9858.08 4604.67 9858.05 4604.69 9858.05C4612.33 9855.55 4619.76 9852.58 4626.9 9849.14L4683.63 9905.87L4765.12 9824.38L4709.34 9768.59C4712.95 9761.5 4716.08 9754.15 4718.74 9746.55H4799H4799.01ZM4638.07 9688.69C4637.18 9736.32 4598.31 9775.17 4550.69 9776.05C4500.15 9776.98 4459 9735.82 4459.95 9685.28C4460.84 9637.65 4499.7 9598.79 4547.33 9597.91C4597.87 9596.98 4639.02 9638.15 4638.08 9688.69H4638.07Z" fill="#1C7FF2" transform="translate(-4299, -9437)"/>
</svg>
