<svg width="479" height="479" viewBox="0 0 479 479" fill="none" xmlns="http://www.w3.org/2000/svg">
<path d="M408.092 70.015C361.418 23.3415 300.229 0 239.05 0C177.87 0 116.691 23.3415 70.0174 70.015C-23.3391 163.372 -23.3391 314.733 70.0174 408.09C116.691 454.773 177.87 478.105 239.05 478.105C300.229 478.105 361.418 454.773 408.092 408.09C501.448 314.733 501.448 163.372 408.092 70.015ZM374.28 374.277C338.163 410.404 290.141 430.293 239.059 430.293C187.978 430.293 139.946 410.404 103.83 374.277C67.7032 338.161 47.8136 290.139 47.8136 239.057C47.8136 187.975 67.7032 139.944 103.83 103.827C139.946 67.7009 187.968 47.8114 239.059 47.8114C290.151 47.8114 338.163 67.7009 374.28 103.827C410.406 139.944 430.296 187.966 430.296 239.057C430.296 290.148 410.406 338.161 374.28 374.277Z" fill="#1C7FF2"/>
<path fill-rule="evenodd" clip-rule="evenodd" d="M265.518 265.516C250.907 280.117 227.221 280.117 212.61 265.516C197.989 250.895 197.989 227.209 212.61 212.598C227.212 197.996 250.907 197.996 265.518 212.598C280.12 227.199 280.12 250.895 265.518 265.516Z" fill="#1C7FF2"/>
<path d="M239.05 47.8114C290.141 47.8114 338.163 67.7009 374.28 103.827C410.396 139.944 430.296 187.975 430.296 239.057C430.296 290.139 410.406 338.17 374.28 374.287C338.173 410.404 290.141 430.293 239.05 430.293C187.959 430.293 139.937 410.404 103.83 374.277C67.7128 338.161 47.8136 290.129 47.8136 239.048C47.8136 187.966 67.7032 139.934 103.83 103.818C139.946 67.701 187.978 47.8018 239.059 47.8018M239.05 0C177.87 0 116.691 23.3415 70.0174 70.015C-23.3391 163.372 -23.3391 314.733 70.0174 408.09C116.691 454.773 177.87 478.105 239.05 478.105C300.229 478.105 361.418 454.773 408.092 408.09C501.448 314.733 501.448 163.372 408.092 70.015C361.418 23.3415 300.229 0 239.05 0Z" fill="#1C7FF2"/>
<path d="M408.092 70.015C361.418 23.3415 300.229 0 239.05 0C177.87 0 116.691 23.3415 70.0174 70.015C-23.3391 163.372 -23.3391 314.733 70.0174 408.09C116.691 454.773 177.87 478.105 239.05 478.105C300.229 478.105 361.418 454.773 408.092 408.09C501.448 314.733 501.448 163.372 408.092 70.015ZM374.28 374.277C338.163 410.404 290.141 430.293 239.059 430.293C187.978 430.293 139.946 410.404 103.83 374.277C67.7032 338.161 47.8136 290.139 47.8136 239.057C47.8136 187.975 67.7032 139.944 103.83 103.827C139.946 67.7009 187.968 47.8114 239.059 47.8114C290.151 47.8114 338.163 67.7009 374.28 103.827C410.406 139.944 430.296 187.966 430.296 239.057C430.296 290.148 410.406 338.161 374.28 374.277Z" fill="#1C7FF2"/>
<path d="M239.05 148.51C263.233 148.51 285.972 157.929 303.079 175.027C320.177 192.124 329.595 214.863 329.595 239.046C329.595 263.229 320.177 285.968 303.07 303.075C285.973 320.173 263.243 329.591 239.05 329.591C214.858 329.591 192.128 320.173 175.031 303.075C139.727 267.771 139.727 210.331 175.031 175.027C192.128 157.929 214.867 148.51 239.05 148.51ZM239.05 100.699C203.641 100.699 168.232 114.211 141.218 141.224C87.1915 195.251 87.1915 282.851 141.218 336.887C168.232 363.901 203.641 377.412 239.05 377.412C274.459 377.412 309.869 363.91 336.882 336.887C390.909 282.861 390.909 195.261 336.882 141.224C309.869 114.211 274.459 100.699 239.05 100.699Z" fill="#1C7FF2"/>
</svg>
