<svg width="541" height="343" viewBox="0 0 541 343" fill="none" xmlns="http://www.w3.org/2000/svg">
<path d="M484.78 0H55.84C55.84 30.84 30.84 55.85 0 55.85V286.8C30.84 286.8 55.84 311.79 55.84 342.63H484.78C484.78 311.79 509.78 286.8 540.62 286.8V55.85C509.78 55.85 484.78 30.84 484.78 0ZM490.62 249.37C472.31 259.23 457.21 274.32 447.35 292.63H93.26C83.41 274.32 68.31 259.23 50 249.37V93.27C68.31 83.41 83.41 68.32 93.27 50H447.35C457.21 68.32 472.3 83.41 490.62 93.27V249.37Z" fill="#1C7FF2"/>
<path d="M353.15 145.29L295.26 143.83C294 143.8 292.89 142.99 292.47 141.8L273.19 87.1897C272.23 84.4797 268.4 84.4797 267.45 87.1897L248.17 141.8C247.75 142.99 246.64 143.8 245.38 143.83L187.48 145.29C184.61 145.36 183.42 149.01 185.71 150.75L231.69 185.96C232.69 186.73 233.12 188.03 232.76 189.25L216.26 244.76C215.44 247.51 218.54 249.77 220.91 248.14L268.61 215.29C269.65 214.57 271.02 214.57 272.07 215.29L319.77 248.14C322.14 249.77 325.23 247.52 324.42 244.76L307.92 189.25C307.56 188.04 307.98 186.73 308.99 185.96L354.97 150.75C357.25 149 356.07 145.36 353.2 145.29H353.15Z" fill="#1C7FF2"/>
</svg>
