<svg width="480" height="290" viewBox="0 0 480 290" fill="none" xmlns="http://www.w3.org/2000/svg">
<path d="M334.47 0H145.539C105.345 0 68.9694 16.2324 42.6261 42.4695C16.2923 68.7161 0 104.958 0 145.005C0 225.08 65.1596 290 145.539 290H334.47C374.655 290 411.04 273.768 437.374 247.531C463.708 221.293 480 185.042 480 145.005C480 64.9202 414.84 0 334.47 0ZM146.487 229.963C99.3906 229.963 61.2157 191.928 61.2157 145.005C61.2157 98.0814 99.3906 60.0372 146.487 60.0372C193.583 60.0372 231.758 98.0814 231.758 145.005C231.758 191.928 193.583 229.963 146.487 229.963Z" fill="#1C7FF2"/>
</svg>
