<svg width="500" height="582" viewBox="0 0 500 582" fill="none" xmlns="http://www.w3.org/2000/svg">
<path d="M500 96.33H365.5V67.29C365.5 30.19 335.31 0 298.21 0H201.79C164.69 0 134.5 30.19 134.5 67.29V96.33H0V146.33H44.41V581.32H455.59V146.33H500V96.33ZM184.5 67.29C184.5 57.76 192.26 50 201.79 50H298.21C307.74 50 315.5 57.76 315.5 67.29V96.33H184.5V67.29ZM405.59 531.31H94.41V146.32H405.59V531.31Z" fill="#1C7FF2"/>
<path d="M275 205.689H225V475.599H275V205.689Z" fill="#1C7FF2"/>
<path d="M184.5 205.689H134.5V475.599H184.5V205.689Z" fill="#1C7FF2"/>
<path d="M365.26 205.689H315.26V475.599H365.26V205.689Z" fill="#1C7FF2"/>
</svg>
