<svg width="498" height="498" viewBox="0 0 498 498" fill="none" xmlns="http://www.w3.org/2000/svg">
<path d="M161.02 288.103C161.7 287.303 162.92 287.023 163.87 287.703L306.1 385.173C307.05 385.723 308.26 385.593 308.8 384.643L432.24 205.503L446.24 215.113C446.32 215.143 446.4 215.193 446.46 215.243L460.62 225.003L463.86 227.223L482.62 240.143C484.32 241.193 486.44 240.143 486.44 238.023V85.683C486.44 83.983 484.74 82.723 483.04 83.353L340.48 138.023C338.58 138.673 338.36 141.213 339.85 142.283L363.57 158.383L390.63 176.953L295.82 314.623C295.14 315.563 293.92 315.833 293.11 315.153L150.88 217.683C149.93 217.003 148.71 217.273 148.04 218.213L50 360.373V0.873047H0V497.473H497.68V447.473H51.23L161.01 288.113L161.02 288.103Z" fill="#1C7FF2"/>
</svg>
