<svg width="590" height="460" viewBox="0 0 590 460" fill="none" xmlns="http://www.w3.org/2000/svg">
<path fill-rule="evenodd" clip-rule="evenodd" d="M1702.83 9640.42C1746.85 9640.42 1782.54 9604.73 1782.54 9560.71C1782.54 9516.69 1746.85 9481 1702.83 9481C1658.81 9481 1623.12 9516.69 1623.12 9560.71C1623.12 9604.73 1658.81 9640.42 1702.83 9640.42Z" fill="#1C7FF2" transform="translate(-1413, -9481)"/>
<path fill-rule="evenodd" clip-rule="evenodd" d="M1524.88 9627.47C1542.59 9609.74 1542.59 9581.02 1524.88 9563.32C1507.16 9545.61 1478.44 9545.61 1460.74 9563.32C1443.01 9581.03 1443.01 9609.75 1460.74 9627.47C1478.45 9645.18 1507.17 9645.18 1524.88 9627.47Z" fill="#1C7FF2" transform="translate(-1413, -9481)"/>
<path fill-rule="evenodd" clip-rule="evenodd" d="M1944.7 9627.47C1962.41 9609.74 1962.41 9581.02 1944.7 9563.32C1926.98 9545.61 1898.26 9545.61 1880.56 9563.32C1862.83 9581.03 1862.83 9609.75 1880.56 9627.47C1898.27 9645.18 1926.99 9645.18 1944.7 9627.47Z" fill="#1C7FF2" transform="translate(-1413, -9481)"/>
<path fill-rule="evenodd" clip-rule="evenodd" d="M1992.2 9750.48C1992.2 9706.41 1956.47 9670.68 1912.4 9670.68C1868.33 9670.68 1833.84 9705.21 1832.66 9748.25C1813.15 9701.26 1766.82 9668.2 1712.76 9668.2H1692.89C1638.44 9668.2 1591.83 9701.74 1572.57 9749.28C1571.93 9705.76 1536.47 9670.67 1492.8 9670.67C1448.73 9670.67 1413 9706.4 1413 9750.47V9800.3H1563.11V9879.01H1842.54V9800.3H1992.2V9750.47V9750.48Z" fill="#1C7FF2" transform="translate(-1413, -9481)"/>
</svg>
