<svg width="391" height="629" viewBox="0 0 391 629" fill="none" xmlns="http://www.w3.org/2000/svg">
<path d="M195.08 81.53C225.31 81.53 254.78 87.26 282.68 98.58C290.61 101.8 298.33 105.43 305.8 109.47V0H84.3604V109.47C91.8304 105.43 99.5505 101.8 107.48 98.58C135.38 87.26 164.85 81.53 195.07 81.53H195.08Z" fill="#1C7FF2"/>
<path d="M195.08 547.17C164.86 547.17 135.39 541.44 107.49 530.12C99.5602 526.9 91.8401 523.27 84.3701 519.23V628.68H305.81V519.23C298.34 523.27 290.63 526.9 282.69 530.12C254.79 541.44 225.32 547.17 195.09 547.17H195.08Z" fill="#1C7FF2"/>
<path d="M333.04 176.38C324.52 167.85 315.39 160.29 305.81 153.67C272.59 130.72 233.84 119.24 195.09 119.24C156.34 119.24 117.6 130.71 84.38 153.65C74.8 160.28 65.67 167.85 57.15 176.37C-19.05 252.57 -19.05 376.09 57.15 452.29C65.67 460.83 74.8 468.4 84.38 475.02C117.6 497.97 156.34 509.43 195.09 509.43C233.84 509.43 272.59 497.95 305.81 475C315.39 468.39 324.52 460.8 333.04 452.28C409.24 376.08 409.24 252.56 333.04 176.36V176.38ZM256.26 430.48L161.2 335.42V216.01H211.5V314.59L291.82 394.92L256.26 430.48Z" fill="#1C7FF2"/>
</svg>
